<svg width="1440" height="1024" viewBox="0 0 1440 1024" fill="none" xmlns="http://www.w3.org/2000/svg">
<rect width="1440" height="1024" fill="#E5E5E5"/>
<rect width="1440" height="1024" fill="white"/>
<path d="M265 521L492.5 155.537H947.5L1175 521L947.5 886.463H492.5L265 521Z" fill="#F0CB0B"/>
<path d="M795.681 601.61C778.34 617.553 756.245 628.411 732.191 632.81C708.138 637.208 683.205 634.951 660.547 626.322C637.889 617.694 618.523 603.082 604.898 584.335C591.272 565.588 584 543.547 584 521C584 498.453 591.272 476.412 604.898 457.665C618.523 438.918 637.889 424.306 660.547 415.678C683.205 407.049 708.138 404.792 732.191 409.19C756.245 413.589 778.34 424.447 795.681 440.39L758.725 474.366C748.693 465.142 735.91 458.861 721.995 456.316C708.08 453.772 693.656 455.078 680.548 460.069C667.44 465.061 656.236 473.514 648.354 484.36C640.471 495.205 636.264 507.956 636.264 521C636.264 534.044 640.471 546.795 648.354 557.64C656.236 568.486 667.44 576.939 680.548 581.931C693.656 586.922 708.08 588.228 721.995 585.684C735.91 583.139 748.693 576.858 758.725 567.634L795.681 601.61Z" fill="white"/>
<ellipse cx="734" cy="521" rx="26" ry="23" fill="white"/>
<path d="M743 521H795.402H856" stroke="white" stroke-width="15"/>
</svg>
